# File created by Blade
# Date/Time:  Wed Sep 24 19:25:39 2014
# Frame Rate: 120.000 fps
#------------------------------------------------------
:FULLY-SPECIFIED
:DEGREES
1195
root -14.952245 32.360849 -3.327838 14.303343 19.172039 3.413842
Spine -14.362124 12.332873 0.096706
Head 17.604585 -0.888859 2.198872
LeftShoulder -16.678039 28.340646 6.958790
LeftArm 13.532511 27.746964 -74.194826
LeftForeArm 4.429384 -0.000000 29.914500
LeftHand -25.840630 -0.000000 -4.653315
LeftHandThumb1 -26.253704 0.000000 33.147579
RightShoulder -19.155797 9.534065 -24.706056
RightArm -9.101901 -6.988706 73.219340
RightForeArm -9.235955 0.000000 105.860753
RightHand -8.550373 -0.000000 -12.317361
RightHandThumb1 -24.326973 -0.000000 -32.862282
LeftUpLeg -9.347551 19.012123 -0.773982
LeftLeg 103.950454 -0.000000 -0.000000
LeftFoot 32.531268 19.162337 -24.173099
LeftToeBase 15.316186 -0.000000 -0.000000
RightUpLeg -16.842562 1.915677 4.401501
RightLeg 19.549052 -0.000000 -0.000000
RightFoot -17.424167 -12.502873 -10.089382
RightToeBase -2.101201 -0.000000 0.000000
1196
root -14.958568 32.359109 -3.309849 14.241771 18.813028 3.317383
Spine -14.380411 12.415510 0.049570
Head 17.690942 -0.855797 2.291848
LeftShoulder -16.784636 28.495950 6.927975
LeftArm 13.502859 27.754962 -74.163261
LeftForeArm 4.261235 -0.000000 29.658955
LeftHand -25.844098 -0.000000 -4.596016
LeftHandThumb1 -26.253704 0.000000 33.147579
RightShoulder -19.189197 9.494793 -24.676553
RightArm -8.944698 -7.274351 73.258085
RightForeArm -9.269320 0.000000 105.861944
RightHand -8.488004 -0.000000 -12.251883
RightHandThumb1 -24.326973 -0.000000 -32.862282
LeftUpLeg -9.302636 18.863536 -0.637707
LeftLeg 103.963316 -0.000000 -0.000000
LeftFoot 32.432694 19.169565 -24.129414
LeftToeBase 15.520931 -0.000000 -0.000000
RightUpLeg -16.757535 2.058631 4.438307
RightLeg 19.481634 -0.000000 -0.000000
RightFoot -17.428336 -12.216246 -10.156170
RightToeBase -2.140707 -0.000000 0.000000
1197
root -14.964482 32.359069 -3.289947 14.142336 18.448162 3.242222
Spine -14.342617 12.494949 -0.006357
Head 17.787194 -0.809802 2.373060
LeftShoulder -16.882930 28.569147 6.900014
LeftArm 13.444445 27.793842 -74.129417
LeftForeArm 4.121394 -0.000000 29.351320
LeftHand -25.911664 -0.000000 -4.577459
LeftHandThumb1 -26.253704 0.000000 33.147579
RightShoulder -19.167531 9.476046 -24.624025
RightArm -8.854308 -7.539878 73.300814
RightForeArm -9.144335 -0.000000 105.931704
RightHand -8.537621 -0.000000 -12.360430
RightHandThumb1 -24.326973 -0.000000 -32.862282
LeftUpLeg -9.189859 18.707751 -0.511714
LeftLeg 103.956553 -0.000000 -0.000000
LeftFoot 32.472127 19.127654 -24.075678
LeftToeBase 15.402304 -0.000000 -0.000000
RightUpLeg -16.619910 2.116291 4.481471
RightLeg 19.398747 -0.000000 -0.000000
RightFoot -17.417134 -11.937716 -10.285531
RightToeBase -2.210713 -0.000000 0.000000
1198
root -14.971994 32.358797 -3.268668 14.053592 18.056234 3.138696
Spine -14.341181 12.617251 -0.054810
Head 17.888966 -0.783460 2.465400
LeftShoulder -16.806413 28.552385 6.967934
LeftArm 13.093788 27.634345 -74.302171
LeftForeArm 4.072616 -0.000000 29.170350
LeftHand -25.806990 -0.000000 -4.727104
LeftHandThumb1 -26.253704 0.000000 33.147579
RightShoulder -19.190347 9.431296 -24.589227
RightArm -8.764462 -7.771944 73.350261
RightForeArm -9.096585 0.000000 105.995614
RightHand -8.536348 -0.000000 -12.271625
RightHandThumb1 -24.326973 -0.000000 -32.862282
LeftUpLeg -9.062082 18.566068 -0.360266
LeftLeg 103.950415 -0.000000 -0.000000
LeftFoot 32.442856 19.120741 -24.262821
LeftToeBase 15.259698 -0.000000 -0.000000
RightUpLeg -16.490970 2.190685 4.555466
RightLeg 19.286879 -0.000000 -0.000000
RightFoot -17.385115 -11.666577 -10.385465
RightToeBase -2.325378 -0.000000 0.000000
1199
root -14.979659 32.357497 -3.246188 13.951831 17.646210 3.025257
Spine -14.328505 12.730494 -0.094671
Head 17.987839 -0.742431 2.570337
LeftShoulder -16.861894 28.558883 6.999545
LeftArm 12.878113 27.582865 -74.387862
LeftForeArm 3.993236 -0.000000 28.981834
LeftHand -25.760149 -0.000000 -4.921852
LeftHandThumb1 -26.253704 0.000000 33.147579
RightShoulder -19.189545 9.458278 -24.570485
RightArm -8.755600 -8.031206 73.399581
RightForeArm -9.091494 -0.000000 106.050983
RightHand -8.485910 -0.000000 -12.331601
RightHandThumb1 -24.326973 -0.000000 -32.862282
LeftUpLeg -8.919824 18.487916 -0.181087
LeftLeg 103.992119 -0.000000 -0.000000
LeftFoot 32.426216 18.835700 -23.655186
LeftToeBase 16.009988 -0.000000 -0.000000
RightUpLeg -16.339809 2.269307 4.636723
RightLeg 19.155270 -0.000000 -0.000000
RightFoot -17.353835 -11.375618 -10.516913
RightToeBase -2.411224 -0.000000 0.000000
1200
root -14.987799 32.358223 -3.229040 13.885745 17.270909 2.932279
Spine -14.342742 12.859662 -0.156277
Head 18.088769 -0.748713 2.632731
LeftShoulder -16.894870 28.573896 7.025375
LeftArm 12.741121 27.555871 -74.427211
LeftForeArm 3.947373 -0.000000 28.779959
LeftHand -25.824588 -0.000000 -4.949460
LeftHandThumb1 -26.253704 0.000000 33.147579
RightShoulder -19.248608 9.406621 -24.530824
RightArm -8.684392 -8.197845 73.450840
RightForeArm -9.000895 -0.000000 106.133181
RightHand -8.469263 -0.000000 -12.271427
RightHandThumb1 -24.326973 -0.000000 -32.862282
LeftUpLeg -8.803870 18.371416 -0.028121
LeftLeg 104.029874 -0.000000 -0.000000
LeftFoot 32.417580 18.894065 -23.992562
LeftToeBase 15.950607 -0.000000 -0.000000
RightUpLeg -16.240674 2.312764 4.702333
RightLeg 19.061600 -0.000000 -0.000000
RightFoot -17.308713 -11.105670 -10.682186
RightToeBase -2.455503 -0.000000 0.000000
1201
root -14.990969 32.358836 -3.209254 13.822124 16.845749 2.882501
Spine -14.368992 13.030271 -0.277333
Head 18.202354 -0.769590 2.699910
LeftShoulder -17.130916 28.858463 6.927304
LeftArm 13.083872 27.647987 -74.189485
LeftForeArm 3.714443 -0.000000 28.515594
LeftHand -25.984182 0.000000 -5.023080
LeftHandThumb1 -26.253704 0.000000 33.147579
RightShoulder -19.274353 9.355260 -24.474569
RightArm -8.682686 -8.388216 73.458168
RightForeArm -8.875854 -0.000000 106.262283
RightHand -8.482435 -0.000000 -12.335999
RightHandThumb1 -24.326973 -0.000000 -32.862282
LeftUpLeg -8.643665 18.313189 0.092534
LeftLeg 104.078985 -0.000000 -0.000000
LeftFoot 32.438621 18.860246 -24.160339
LeftToeBase 15.500209 -0.000000 -0.000000
RightUpLeg -16.146799 2.366019 4.716382
RightLeg 19.013942 -0.000000 -0.000000
RightFoot -17.309576 -10.800078 -10.823268
RightToeBase -2.536139 -0.000000 0.000000
1202
root -14.989890 32.360205 -3.198251 13.816453 16.401868 2.899612
Spine -14.417305 13.144683 -0.468668
Head 18.281895 -0.720115 2.800674
LeftShoulder -17.212004 28.862788 6.940751
LeftArm 12.924487 27.566610 -74.240716
LeftForeArm 3.724868 -0.000000 28.367491
LeftHand -25.918509 -0.000000 -4.886659
LeftHandThumb1 -26.253704 0.000000 33.147579
RightShoulder -19.338838 9.332723 -24.411018
RightArm -8.603412 -8.561703 73.496371
RightForeArm -8.781688 0.000000 106.344791
RightHand -8.333459 -0.000000 -12.118083
RightHandThumb1 -24.326973 -0.000000 -32.862282
LeftUpLeg -8.533970 18.257705 0.087149
LeftLeg 104.123661 -0.000000 -0.000000
LeftFoot 32.414321 18.971912 -24.423117
LeftToeBase 15.546870 -0.000000 -0.000000
RightUpLeg -16.243194 2.322619 4.680208
RightLeg 19.260328 -0.000000 -0.000000
RightFoot -17.348679 -10.523562 -11.068613
RightToeBase -2.646243 -0.000000 0.000000
1203
root -14.997113 32.362957 -3.183760 13.812092 15.994782 2.874639
Spine -14.496957 13.253637 -0.634155
Head 18.368379 -0.706101 2.905133
LeftShoulder -17.294300 28.909176 6.960024
LeftArm 12.852444 27.485190 -74.250040
LeftForeArm 3.644494 0.000000 28.211943
LeftHand -25.939760 0.000000 -4.884244
LeftHandThumb1 -26.253704 0.000000 33.147579
RightShoulder -19.404768 9.306809 -24.314155
RightArm -8.573443 -8.723984 73.486231
RightForeArm -8.691297 -0.000000 106.471554
RightHand -8.368927 0.000000 -12.099993
RightHandThumb1 -24.326973 -0.000000 -32.862282
LeftUpLeg -8.448729 18.195868 0.141587
LeftLeg 104.227424 -0.000000 -0.000000
LeftFoot 32.392127 18.876489 -24.059052
LeftToeBase 15.748503 -0.000000 -0.000000
RightUpLeg -16.202723 2.385124 4.672245
RightLeg 19.192433 -0.000000 -0.000000
RightFoot -17.335740 -10.250857 -11.222681
RightToeBase -2.697001 -0.000000 0.000000
1204
root -15.007034 32.363979 -3.167533 13.782488 15.586847 2.810662
Spine -14.559614 13.410977 -0.766006
Head 18.439918 -0.737200 2.994797
LeftShoulder -17.350250 29.027326 6.974832
LeftArm 12.863412 27.356866 -74.234203
LeftForeArm 3.518526 -0.000000 28.120346
LeftHand -26.096872 -0.000000 -4.982519
LeftHandThumb1 -26.253704 0.000000 33.147579
RightShoulder -19.544866 9.283524 -24.257906
RightArm -8.545402 -8.904971 73.499892
RightForeArm -8.548901 -0.000000 106.563486
RightHand -8.377120 -0.000000 -12.149798
RightHandThumb1 -24.326973 -0.000000 -32.862282
LeftUpLeg -8.301299 18.148590 0.288341
LeftLeg 104.330978 -0.000000 -0.000000
LeftFoot 32.391235 18.966467 -24.440464
LeftToeBase 15.772616 -0.000000 -0.000000
RightUpLeg -16.128394 2.486307 4.702508
RightLeg 19.090497 -0.000000 -0.000000
RightFoot -17.304017 -9.990955 -11.348043
RightToeBase -2.781973 -0.000000 0.000000
1205
root -15.016716 32.366067 -3.153120 13.794552 15.175904 2.762273
Spine -14.668837 13.520349 -0.901879
Head 18.513965 -0.686583 3.054636
LeftShoulder -17.407902 28.899698 7.029723
LeftArm 12.581647 27.289768 -74.330179
LeftForeArm 3.511618 -0.000000 28.039600
LeftHand -25.957677 -0.000000 -4.960445
LeftHandThumb1 -26.253704 0.000000 33.147579
RightShoulder -19.642986 9.217413 -24.189808
RightArm -8.482174 -9.057212 73.496400
RightForeArm -8.553156 -0.000000 106.667527
RightHand -8.361878 -0.000000 -12.050041
RightHandThumb1 -24.326973 -0.000000 -32.862282
LeftUpLeg -8.193466 18.122471 0.386801
LeftLeg 104.469248 -0.000000 -0.000000
LeftFoot 32.433535 18.865512 -24.235795
LeftToeBase 15.657369 -0.000000 -0.000000
RightUpLeg -16.071564 2.634133 4.702354
RightLeg 18.939571 -0.000000 -0.000000
RightFoot -17.253618 -9.729807 -11.448143
RightToeBase -2.905946 -0.000000 0.000000
1206
root -15.026064 32.367214 -3.141961 13.815943 14.780318 2.726272
Spine -14.768626 13.571218 -1.028783
Head 18.554262 -0.588789 3.116731
LeftShoulder -17.525754 28.948215 6.999179
LeftArm 12.497106 27.161475 -74.334949
LeftForeArm 3.343905 -0.000000 28.022818
LeftHand -26.048791 -0.000000 -5.120692
LeftHandThumb1 -26.253704 0.000000 33.147579
RightShoulder -19.662048 9.188162 -24.117979
RightArm -8.475548 -9.177497 73.499907
RightForeArm -8.390340 -0.000000 106.808000
RightHand -8.298327 0.000000 -12.091979
RightHandThumb1 -24.326973 -0.000000 -32.862282
LeftUpLeg -8.090737 18.053824 0.489089
LeftLeg 104.629511 -0.000000 -0.000000
LeftFoot 32.468287 18.877102 -24.367206
LeftToeBase 15.292340 -0.000000 -0.000000
RightUpLeg -16.030668 2.778843 4.695057
RightLeg 18.802638 -0.000000 -0.000000
RightFoot -17.219073 -9.527416 -11.604536
RightToeBase -2.961850 -0.000000 0.000000
1207
root -15.032486 32.369797 -3.129501 13.839834 14.381671 2.713780
Spine -14.883918 13.645028 -1.204254
Head 18.596817 -0.538093 3.235971
LeftShoulder -17.478866 28.921185 7.068075
LeftArm 12.219374 26.916172 -74.485128
LeftForeArm 3.331892 0.000000 28.042056
LeftHand -25.982379 -0.000000 -5.111169
LeftHandThumb1 -26.253704 0.000000 33.147579
RightShoulder -19.736716 9.082267 -24.003726
RightArm -8.383269 -9.278454 73.448765
RightForeArm -8.385470 -0.000000 106.914707
RightHand -8.312759 -0.000000 -12.086857
RightHandThumb1 -24.326973 -0.000000 -32.862282
LeftUpLeg -7.950918 18.012418 0.565238
LeftLeg 104.765181 -0.000000 -0.000000
LeftFoot 32.490882 18.949366 -24.611948
LeftToeBase 15.251011 -0.000000 -0.000000
RightUpLeg -16.018850 2.923598 4.656363
RightLeg 18.741516 -0.000000 -0.000000
RightFoot -17.213251 -9.277640 -11.666731
RightToeBase -3.032827 -0.000000 0.000000
